<?xml version="1.0" standalone="no"?>
<!DOCTYPE svg PUBLIC "-//W3C//DTD SVG 20010904//EN"
 "http://www.w3.org/TR/2001/REC-SVG-20010904/DTD/svg10.dtd">
<svg version="1.0" xmlns="http://www.w3.org/2000/svg"
 width="144.000000pt" height="144.000000pt" viewBox="0 0 144.000000 144.000000"
 preserveAspectRatio="xMidYMid meet">
<metadata>
Created by potrace 1.14, written by Peter Selinger 2001-2017
</metadata>
<g transform="translate(0.000000,144.000000) scale(0.100000,-0.100000)"
fill="#000000" stroke="none">
<path d="M915 1197 c-83 -38 -75 -169 11 -197 41 -14 70 -6 107 28 22 21 27
34 27 72 0 38 -5 51 -28 73 -34 33 -77 41 -117 24z"/>
<path d="M538 1194 c-10 -3 -18 -9 -18 -13 0 -8 44 -103 144 -313 56 -118 56
-118 325 -119 122 -1 224 1 226 3 9 8 -16 76 -36 102 -39 50 -93 68 -215 74
l-111 5 -51 102 c-64 130 -97 158 -186 161 -33 2 -69 0 -78 -2z"/>
<path d="M367 1110 c-70 -83 -58 -180 44 -346 l19 -31 -50 -76 c-72 -111 -80
-130 -80 -188 0 -38 7 -64 25 -95 49 -83 52 -82 164 79 154 222 164 246 137
312 -30 72 -209 375 -222 375 -7 0 -23 -13 -37 -30z"/>
<path d="M182 830 c-63 -39 -70 -114 -17 -167 33 -33 39 -35 81 -30 53 6 80
27 94 75 25 94 -77 173 -158 122z"/>
<path d="M739 647 c-25 -16 -63 -74 -142 -212 -102 -175 -108 -190 -91 -202
23 -17 96 -17 138 1 48 20 96 72 146 160 44 77 44 77 80 71 19 -3 73 -6 120
-7 74 -1 92 2 128 22 47 26 80 72 92 125 l8 33 -47 6 c-72 9 -299 26 -351 26
-32 0 -58 -7 -81 -23z"/>
<path d="M851 371 c-26 -24 -31 -36 -31 -76 0 -38 5 -52 29 -76 50 -50 135
-38 167 23 24 47 18 86 -20 124 -46 46 -99 47 -145 5z"/>
</g>
</svg>
